<?xml version="1.0" standalone="no"?>
<!DOCTYPE svg PUBLIC "-//W3C//DTD SVG 20010904//EN"
 "http://www.w3.org/TR/2001/REC-SVG-20010904/DTD/svg10.dtd">
<svg version="1.0" xmlns="http://www.w3.org/2000/svg"
 width="500.000000pt" height="500.000000pt" viewBox="0 0 500.000000 500.000000"
 preserveAspectRatio="xMidYMid meet">

<g transform="translate(0.000000,500.000000) scale(0.100000,-0.100000)"
fill="#000000" stroke="none">
<path d="M4075 4143 c-11 -2 -29 -8 -40 -13 -11 -5 -52 -18 -91 -29 -43 -13
-81 -31 -97 -47 -37 -37 -52 -97 -39 -150 10 -35 8 -46 -13 -90 -14 -27 -25
-57 -25 -66 0 -31 -19 -29 -36 4 -9 18 -17 58 -18 89 -1 71 -19 93 -88 110
-48 11 -166 7 -188 -6 -26 -16 -8 -57 53 -118 67 -69 96 -81 171 -71 l45 7 7
-39 c3 -22 12 -46 19 -54 7 -8 15 -31 17 -50 3 -30 -1 -35 -22 -42 -14 -3 -45
-12 -70 -19 -106 -30 -177 -104 -221 -231 -20 -58 -27 -94 -23 -118 24 -149
48 -196 134 -261 57 -43 156 -79 215 -79 56 0 156 35 201 71 20 16 42 29 49
29 15 0 65 72 83 120 25 69 27 161 4 237 -12 38 -31 78 -42 88 -11 10 -20 24
-20 30 0 18 -96 88 -148 108 -23 9 -55 17 -71 17 -16 0 -33 6 -39 13 -13 16 2
137 23 176 8 17 15 36 15 44 0 30 21 36 64 16 24 -11 64 -19 97 -19 49 0 59 4
90 33 47 46 79 86 79 100 0 7 14 36 30 66 34 62 41 135 14 145 -17 7 -87 6
-119 -1z m93 -51 c6 -20 -73 -175 -109 -214 -36 -38 -88 -55 -133 -44 -45 11
-41 37 11 83 26 23 60 47 76 54 16 7 27 19 27 30 0 15 -8 19 -40 19 -22 0 -40
-4 -40 -9 0 -7 -95 -71 -106 -71 -12 0 -2 45 16 70 42 59 283 126 298 82z
m-550 -167 c41 -12 53 -21 58 -41 9 -36 0 -39 -39 -15 -65 40 -83 11 -19 -30
50 -32 49 -53 -3 -57 -37 -2 -46 3 -104 57 -38 36 -60 64 -56 71 19 31 87 37
163 15z m118 -414 c-39 -26 -66 -70 -66 -107 0 -17 -7 -37 -16 -45 -64 -53
-55 -190 14 -205 56 -12 92 -26 99 -37 4 -6 12 -41 18 -77 9 -60 13 -66 43
-79 41 -19 41 -38 0 -49 -45 -12 -149 -4 -168 12 -8 8 -34 23 -57 35 -43 21
-57 51 -32 67 28 17 -17 162 -58 187 -7 4 -13 14 -13 21 0 7 -9 21 -20 31 -25
23 -25 46 -1 93 44 84 170 169 256 171 l30 1 -29 -19z m236 -81 c57 -55 61
-61 46 -76 -24 -24 -92 -7 -96 24 -4 26 -28 41 -84 50 -23 4 -43 12 -45 19 -4
11 64 39 100 42 10 0 46 -26 79 -59z m-162 -120 c19 -5 50 -7 68 -4 29 6 32 4
32 -20 0 -19 7 -29 25 -36 14 -5 28 -16 31 -24 9 -23 -36 -134 -68 -168 -37
-39 -48 -30 -57 52 -8 67 -15 75 -76 90 -56 15 -69 23 -80 55 -8 24 -6 30 19
52 20 17 35 23 50 18 12 -3 37 -10 56 -15z m251 -176 c-13 -46 -47 -104 -61
-104 -5 0 -10 3 -10 8 0 19 32 108 46 130 23 35 38 15 25 -34z m-569 9 c15
-19 38 -68 38 -82 0 -5 -6 -11 -14 -14 -18 -7 -46 34 -56 80 -9 37 7 45 32 16z"/>
<path d="M3155 4099 c-31 -18 -45 -40 -45 -73 1 -42 19 -63 61 -71 52 -10 89
24 91 83 1 23 -3 47 -8 52 -16 15 -78 21 -99 9z m49 -15 c24 -9 19 -30 -16
-63 -24 -22 -35 -27 -45 -19 -21 17 -15 45 13 67 30 24 27 23 48 15z"/>
<path d="M2370 3840 c-235 -50 -410 -194 -468 -386 -43 -141 -46 -244 -16
-452 8 -50 -6 -72 -47 -72 -21 0 -37 -11 -63 -43 -59 -72 -61 -163 -5 -233 39
-49 50 -55 123 -68 58 -11 61 -12 74 -51 73 -210 115 -287 220 -400 46 -49 79
-74 162 -120 140 -77 346 -76 472 2 21 13 41 23 46 23 8 0 157 143 181 174 31
41 88 156 115 231 49 140 45 134 88 145 52 15 113 71 134 125 35 92 -18 214
-106 244 -25 8 -47 17 -49 18 -2 1 4 52 14 113 47 291 -32 529 -216 655 -62
42 -171 85 -259 101 -106 19 -296 17 -400 -6z m344 -105 c115 -19 197 -58 268
-129 65 -67 85 -97 115 -177 26 -68 28 -85 28 -209 -1 -157 -6 -171 -86 -215
-49 -26 -56 -27 -158 -22 -87 4 -124 11 -206 40 -152 53 -195 60 -309 54 -73
-4 -128 -15 -196 -37 -114 -36 -135 -37 -155 -6 -38 58 -35 267 5 381 29 82
50 112 118 177 66 63 149 109 240 133 63 16 194 33 222 28 8 -1 60 -9 114 -18z
m-131 -843 c-2 -12 -24 -54 -49 -94 -60 -94 -89 -157 -76 -170 5 -5 46 -10 91
-12 88 -3 113 -14 85 -37 -23 -19 -147 -16 -196 5 -28 12 -38 22 -38 39 0 33
89 202 144 274 21 28 42 25 39 -5z m-300 -439 c42 -90 156 -143 303 -143 151
0 253 51 304 151 14 27 26 39 38 37 25 -5 18 -51 -15 -103 -73 -116 -280 -175
-456 -129 -86 22 -114 39 -176 103 -56 59 -74 91 -65 116 12 31 44 16 67 -32z"/>
<path d="M2244 3537 c-4 -19 3 -54 22 -105 52 -144 120 -233 203 -269 64 -27
210 -13 247 24 9 10 23 18 31 19 7 1 32 12 55 24 39 20 41 20 62 3 11 -10 29
-27 38 -38 9 -11 20 -17 24 -13 4 4 -10 28 -30 52 -59 73 -189 136 -309 151
-66 8 -89 20 -67 35 8 5 27 10 42 10 49 0 170 -30 209 -52 21 -12 41 -19 44
-17 3 3 -7 21 -20 40 -52 71 -91 111 -135 137 -45 27 -47 27 -227 27 l-182 0
-7 -28z"/>
<path d="M4246 2973 c-31 -31 -40 -61 -32 -106 11 -61 66 -94 139 -83 36 6 45
13 65 47 19 32 22 49 17 78 -15 84 -130 123 -189 64z m84 -33 c0 -42 7 -46 63
-41 25 3 22 -41 -5 -66 -34 -30 -55 -34 -93 -19 -49 21 -70 57 -56 98 15 43
40 68 68 68 20 0 23 -5 23 -40z"/>
<path d="M803 2935 l-27 -23 26 -34 c40 -52 75 -83 95 -83 27 0 25 -58 -2 -63
-26 -5 -115 -92 -115 -112 0 -19 42 -44 73 -45 25 0 27 -26 10 -128 -6 -32 -7
-59 -4 -61 13 -8 188 -17 204 -11 22 9 22 53 1 134 -17 69 -13 84 21 75 35 -9
85 16 85 41 0 36 -85 105 -128 105 -13 0 -21 9 -25 25 -4 21 1 28 27 39 39 17
116 89 116 107 -1 18 -35 59 -49 59 -21 0 -101 -94 -101 -118 0 -21 -4 -23
-37 -20 -29 2 -39 8 -41 23 -2 11 -26 41 -53 67 l-50 47 -26 -24z m186 -251
c1 -10 9 -26 16 -34 10 -12 28 -111 30 -165 0 -6 -28 -10 -65 -9 -62 1 -65 2
-64 25 6 90 14 132 28 148 9 9 16 24 16 33 0 33 32 35 39 2z m106 -34 c10 -11
14 -20 9 -20 -5 0 -15 9 -22 20 -7 11 -11 20 -9 20 2 0 12 -9 22 -20z"/>
<path d="M1502 2855 c-30 -22 -25 -59 11 -80 26 -15 30 -15 52 -1 30 20 33 56
7 79 -23 21 -41 21 -70 2z m55 -31 c3 -8 1 -20 -6 -27 -14 -14 -47 15 -37 32
10 16 36 13 43 -5z"/>
<path d="M1625 2720 c3 -5 8 -10 11 -10 2 0 4 5 4 10 0 6 -5 10 -11 10 -5 0
-7 -4 -4 -10z"/>
<path d="M1531 2684 c0 -11 3 -14 6 -6 3 7 2 16 -1 19 -3 4 -6 -2 -5 -13z"/>
<path d="M3530 2546 c0 -19 4 -37 9 -40 11 -7 21 28 14 54 -9 32 -23 23 -23
-14z"/>
<path d="M3950 2503 c-21 -45 -21 -47 -4 -60 16 -11 19 -10 30 15 6 16 15 43
19 60 11 50 -19 40 -45 -15z"/>
<path d="M3851 2463 c-1 -54 2 -62 20 -68 12 -4 25 -3 31 3 11 11 0 62 -13 62
-5 0 -15 15 -23 33 l-14 32 -1 -62z"/>
<path d="M1304 2499 c-3 -5 6 -25 21 -44 28 -38 43 -47 23 -15 -15 23 -4 38
16 21 8 -7 17 -8 20 -3 3 5 -13 18 -34 30 -24 12 -42 17 -46 11z"/>
<path d="M1575 2488 c19 -58 25 -68 46 -68 45 0 67 -70 28 -90 -19 -11 -18
-13 20 -40 22 -16 47 -41 56 -54 17 -25 45 -42 45 -26 0 4 -20 29 -45 53 -40
41 -45 50 -45 91 0 42 2 47 33 60 31 12 72 70 62 87 -7 10 -53 -2 -66 -17 -14
-18 -28 -18 -48 0 -9 7 -33 17 -54 20 -37 7 -38 6 -32 -16z m65 -33 c10 -12
10 -15 -3 -15 -8 0 -20 7 -27 15 -10 12 -10 15 3 15 8 0 20 -7 27 -15z m100 6
c0 -12 -20 -25 -27 -18 -7 7 6 27 18 27 5 0 9 -4 9 -9z"/>
<path d="M3567 2483 c-9 -9 -9 -51 1 -56 4 -3 20 6 36 20 23 20 26 27 15 34
-17 10 -43 12 -52 2z"/>
<path d="M3450 2474 c0 -3 5 -14 10 -25 12 -21 27 -24 50 -9 13 9 12 12 -4 25
-19 15 -56 21 -56 9z"/>
<path d="M1424 2438 c11 -29 21 -35 30 -19 3 5 -1 12 -10 15 -9 3 -14 12 -11
19 3 8 -1 14 -7 14 -10 0 -11 -7 -2 -29z"/>
<path d="M1381 2426 c-9 -11 -8 -15 5 -20 22 -8 24 -8 24 8 0 21 -16 28 -29
12z"/>
<path d="M3951 2407 c-40 -19 -12 -65 31 -51 21 6 47 31 48 45 0 12 -56 15
-79 6z"/>
<path d="M3810 2388 c0 -12 -8 -31 -17 -42 -10 -12 -14 -18 -9 -14 5 5 15 -1
23 -12 18 -26 53 -27 53 -1 0 26 -28 91 -40 91 -6 0 -10 -10 -10 -22z"/>
<path d="M3456 2373 c10 -40 12 -43 40 -43 17 0 24 5 24 20 0 11 -6 20 -14 20
-7 0 -19 7 -26 15 -20 24 -31 18 -24 -12z"/>
<path d="M3570 2378 c-26 -28 -25 -45 1 -53 26 -9 59 20 59 52 0 30 -32 31
-60 1z"/>
<path d="M1214 2359 c-3 -6 -18 -10 -32 -9 -79 5 -96 -6 -97 -62 l0 -43 -90
-5 c-94 -5 -131 -18 -179 -64 -31 -28 -32 -36 -7 -36 28 0 32 -11 33 -92 1
-40 5 -79 11 -85 14 -18 54 -16 61 3 5 13 9 14 21 4 23 -19 35 -2 35 49 0 60
14 73 77 69 l48 -3 3 -61 3 -62 54 -7 c96 -12 95 -14 95 139 0 125 1 134 25
166 29 40 32 75 8 84 -10 3 -28 10 -40 15 -15 7 -24 7 -29 0z m31 -86 c-9 -58
-29 -93 -54 -93 -28 0 -38 19 -46 83 l-7 57 56 0 57 0 -6 -47z m-116 -82 c13
-18 35 -32 58 -38 l38 -9 0 -79 c0 -68 -3 -80 -17 -83 -15 -3 -18 5 -18 52 0
43 -3 56 -15 56 -11 0 -15 -13 -15 -54 0 -93 -37 -81 -42 14 l-3 55 -105 0
-105 0 -3 -55 c-4 -74 -8 -86 -27 -70 -11 9 -15 35 -15 102 0 81 2 91 25 113
22 23 31 25 124 25 99 0 100 0 120 -29z m-169 -161 c0 -33 -15 -41 -22 -12 -6
21 1 42 13 42 5 0 9 -13 9 -30z"/>
<path d="M1388 2336 c-3 -24 0 -32 9 -29 7 3 11 9 8 13 -3 5 3 6 12 4 10 -2
38 0 63 5 l45 10 -45 -1 c-67 0 -70 1 -70 17 0 30 -18 14 -22 -19z"/>
<path d="M1560 2330 c20 -13 40 -13 40 0 0 6 -12 10 -27 10 -22 0 -25 -2 -13
-10z"/>
<path d="M3948 2322 c-47 -4 -68 -26 -46 -49 20 -20 53 -9 75 23 19 29 18 30
-29 26z"/>
<path d="M3762 2280 c-8 -33 -7 -42 10 -59 21 -23 27 -25 46 -13 15 10 3 50
-27 88 l-19 24 -10 -40z"/>
<path d="M3595 2290 c-54 -36 -56 -80 -2 -66 19 4 26 15 32 42 3 20 5 38 3 40
-2 2 -17 -5 -33 -16z"/>
<path d="M3450 2272 c0 -34 16 -52 46 -52 46 0 40 40 -9 65 -39 19 -37 20 -37
-13z"/>
<path d="M3902 2228 c-58 -11 -75 -30 -49 -55 13 -14 20 -14 46 -3 17 7 37 25
45 41 8 16 14 28 13 28 -1 -1 -26 -6 -55 -11z"/>
<path d="M3716 2204 c-8 -32 2 -86 18 -96 24 -16 46 -8 46 17 0 19 -33 81 -54
103 -2 1 -7 -9 -10 -24z"/>
<path d="M3582 2172 c-33 -30 -40 -40 -30 -50 30 -30 72 -1 80 56 3 17 2 32
-1 32 -3 -1 -25 -18 -49 -38z"/>
<path d="M3450 2182 c0 -30 29 -62 56 -62 37 0 27 28 -18 57 -34 21 -38 22
-38 5z"/>
<path d="M1388 2168 c-2 -13 -15 -29 -30 -36 -16 -7 -28 -18 -28 -23 0 -6 4
-7 10 -4 16 10 50 -14 50 -36 0 -13 -11 -25 -32 -34 l-33 -13 30 -4 c26 -2 31
-8 36 -38 6 -35 14 -29 21 15 3 16 11 20 38 20 32 0 35 -3 38 -33 4 -42 26
-37 30 6 3 28 7 32 31 32 32 0 56 -22 48 -45 -4 -8 -2 -17 3 -20 6 -4 10 5 10
18 0 32 22 49 56 45 20 -2 30 -10 35 -28 l6 -25 8 27 c4 16 15 29 28 31 21 4
21 4 -1 6 -20 1 -23 5 -20 39 3 33 6 37 33 41 l30 4 -30 6 c-26 5 -31 11 -33
41 l-4 35 -16 -35 c-26 -54 -90 -51 -93 4 -1 20 -2 20 -6 1 -8 -31 -23 -45
-50 -45 -16 0 -27 7 -30 20 -7 25 -15 25 -38 0 -12 -13 -29 -20 -44 -18 -21 2
-27 9 -29 36 -4 37 -19 43 -24 10z m92 -83 c19 -23 4 -45 -30 -45 -32 0 -47
18 -36 45 7 19 50 19 66 0z m105 -15 c0 -20 -6 -26 -28 -28 -29 -4 -44 16 -33
44 4 10 15 14 33 12 22 -2 28 -8 28 -28z m104 16 c18 -22 2 -46 -30 -46 -31 0
-45 19 -35 45 7 19 50 20 65 1z"/>
<path d="M3873 2140 c-53 -11 -83 -27 -83 -45 0 -7 10 -15 23 -17 37 -6 77 12
93 43 8 16 13 29 12 28 -2 -1 -22 -5 -45 -9z"/>
<path d="M3530 2064 c0 -8 5 -12 10 -9 6 3 10 10 10 16 0 5 -4 9 -10 9 -5 0
-10 -7 -10 -16z"/>
<path d="M3742 2045 c-21 -47 -14 -61 13 -25 22 30 25 50 6 50 -4 0 -13 -11
-19 -25z"/>
<path d="M1612 1743 c-9 -17 -43 -143 -91 -339 -11 -44 -23 -88 -27 -97 -5
-13 -1 -17 19 -17 23 0 25 3 21 33 -7 42 10 85 38 96 23 9 113 0 125 -12 3 -4
8 -32 11 -62 l4 -55 35 0 c28 0 34 3 29 15 -16 43 -72 265 -97 384 -14 67 -47
93 -67 54z m25 -95 c5 -7 18 -53 28 -101 20 -101 18 -107 -46 -107 -54 0 -64
19 -45 77 9 27 18 68 20 93 2 25 4 46 5 48 3 7 30 0 38 -10z"/>
<path d="M2800 1742 c0 -4 4 -12 9 -17 11 -12 18 -211 8 -221 -4 -4 -7 -37 -7
-73 0 -36 -4 -83 -9 -103 -9 -37 -8 -38 23 -43 94 -15 169 4 191 48 20 40 21
141 2 170 -22 35 -26 65 -11 78 8 7 14 31 14 59 0 38 -6 55 -26 79 -25 30 -28
31 -110 31 -46 0 -84 -4 -84 -8z m154 -25 c14 -10 18 -28 19 -76 2 -55 -1 -65
-22 -82 -26 -21 -86 -26 -97 -7 -11 18 -12 119 -2 151 9 23 16 27 47 27 20 0
45 -6 55 -13z m0 -193 c24 -9 36 -71 27 -137 -4 -32 -12 -62 -17 -67 -16 -15
-86 -21 -100 -9 -18 15 -20 189 -2 207 13 13 66 16 92 6z"/>
<path d="M2545 1706 c-64 -28 -70 -44 -73 -196 -3 -112 -1 -143 12 -169 36
-69 140 -80 191 -20 24 30 25 35 25 180 0 148 0 149 -27 178 -33 35 -85 46
-128 27z m100 -46 c11 -22 15 -63 15 -168 0 -126 -2 -142 -21 -166 -15 -19
-30 -26 -54 -26 -58 0 -65 22 -65 192 0 180 6 198 66 198 38 0 45 -4 59 -30z"/>
<path d="M1883 1688 c-18 -13 -34 -35 -37 -52 -10 -49 -7 -261 5 -294 14 -41
68 -67 118 -57 20 5 51 8 69 8 l33 0 -3 81 c-3 79 -4 81 -29 84 -25 3 -25 2
-21 -56 5 -69 -11 -92 -62 -92 -60 0 -66 18 -66 188 0 143 1 152 22 172 12 11
31 20 42 20 27 -1 63 -30 68 -55 2 -12 13 -21 26 -23 20 -3 22 1 22 42 0 43
-2 46 -27 46 -16 0 -50 3 -78 6 -42 4 -55 2 -82 -18z"/>
<path d="M2175 1501 l0 -211 25 0 c25 0 25 0 21 86 l-3 85 32 -3 c29 -3 34 -9
67 -85 30 -71 39 -83 59 -83 28 0 30 7 8 38 -8 12 -23 46 -34 77 l-19 54 25
36 c34 51 34 142 0 182 -22 25 -31 28 -103 31 l-78 4 0 -211z m152 162 c17
-22 17 -112 1 -149 -10 -23 -20 -30 -47 -32 -53 -4 -61 10 -61 102 0 52 5 87
13 95 16 17 78 7 94 -16z"/>
<path d="M3161 1689 c-33 -35 -44 -99 -39 -227 5 -141 17 -167 85 -178 56 -8
83 0 110 35 20 26 22 40 24 176 l2 149 -37 33 c-29 27 -44 33 -80 33 -33 0
-51 -6 -65 -21z m125 -24 c14 -21 17 -53 18 -165 1 -126 -1 -141 -20 -167 -28
-37 -81 -43 -110 -12 -16 18 -19 39 -22 138 -4 150 6 202 38 218 41 21 78 16
96 -12z"/>
<path d="M3424 1694 c-8 -3 -2 -28 18 -77 17 -40 38 -89 46 -110 18 -44 19
-184 2 -201 -18 -18 -11 -27 22 -24 l32 3 0 106 c1 69 5 111 13 121 7 8 23 46
36 84 13 38 27 77 31 87 6 12 4 17 -8 17 -9 0 -18 -11 -21 -27 -13 -63 -29
-104 -47 -120 -23 -21 -29 -14 -59 62 -32 83 -38 90 -65 79z"/>
<path d="M1325 1555 c-22 -8 -48 -17 -57 -21 -25 -9 -39 -58 -25 -88 18 -38
78 -37 105 2 20 28 62 107 62 117 0 9 -44 4 -85 -10z"/>
<path d="M3991 1556 c-19 -7 -44 -25 -55 -40 -17 -22 -18 -30 -8 -47 7 -11 10
-24 7 -29 -3 -5 6 -12 21 -16 48 -12 96 28 129 109 l15 37 -37 -1 c-21 0 -54
-6 -72 -13z"/>
<path d="M3791 1476 c20 -35 48 -49 69 -36 19 12 -5 46 -41 59 -47 16 -50 14
-28 -23z"/>
<path d="M1100 1491 c0 -25 33 -61 56 -61 27 0 34 30 11 48 -20 17 -67 26 -67
13z"/>
</g>
</svg>
